<svg width="600" height="140" viewBox="0 0 600 140" fill="none" xmlns="http://www.w3.org/2000/svg">
<rect width="600" height="140" fill="#111827"/>
<rect x="18" y="20" width="100" height="100" fill="#FDDC35"/>
<path d="M66.6364 76.0909V100.023C66.6023 102.716 65.4773 104.114 63.3636 104.114C61.2841 104.114 60.125 102.733 60.0227 100.091H50.5455C50.5114 108.136 56.0341 111.477 62.75 111.477C70.4886 111.477 75.9432 106.841 75.9773 100.023V76.0909H66.6364ZM99.2869 87H108.355C108.321 80.1477 103.037 75.6136 94.5824 75.6136C86.2812 75.6136 80.4176 80.0795 80.4688 86.7273C80.4517 92.1818 84.2358 95.2159 90.4233 96.5455L93.9006 97.2955C97.7869 98.1477 99.1165 99.1193 99.1506 100.705C99.1165 102.426 97.5483 103.636 94.5142 103.636C90.8835 103.636 88.7358 101.932 88.5824 98.7273H79.5824C79.6165 107.489 85.5483 111.409 94.6506 111.409C103.497 111.409 108.798 107.591 108.832 100.705C108.798 95.3864 105.628 91.6534 97.9233 90L95.0597 89.3864C91.7528 88.6875 90.2699 87.7159 90.3551 86.0455C90.3722 84.5114 91.6506 83.3864 94.5824 83.3864C97.6506 83.3864 99.0994 84.733 99.2869 87Z" fill="#111827"/>
<path d="M146.719 99.8438C144.906 98.4688 143.406 96.75 142.219 94.6875C141.094 92.625 140.188 90.4375 139.5 88.125C138.875 85.8125 138.438 83.4375 138.188 81C138 78.5 137.938 76.125 138 73.875C138.562 72.1875 139.25 70.6562 140.062 69.2812C140.875 67.8438 141.781 66.5 142.781 65.25C143.781 63.9375 144.812 62.7188 145.875 61.5938C147 60.4062 148.094 59.2188 149.156 58.0312C149.531 58.0312 149.875 58.125 150.188 58.3125C150.438 57.625 150.812 57.0312 151.312 56.5312C151.812 56.0312 152.344 55.5938 152.906 55.2188C153.469 54.7812 154.031 54.375 154.594 54C155.156 53.5625 155.625 53.0625 156 52.5C157.562 52.125 158.938 51.5938 160.125 50.9062C161.375 50.2188 162.562 49.4688 163.688 48.6562C164.812 47.8438 165.969 47.0938 167.156 46.4062C168.344 45.7188 169.719 45.1875 171.281 44.8125C171.844 44.1875 172.531 43.6562 173.344 43.2188C174.219 42.7812 175.062 42.375 175.875 42C176.75 41.625 177.562 41.2188 178.312 40.7812C179.125 40.3438 179.781 39.75 180.281 39C180.656 39.5 181.188 39.6875 181.875 39.5625C182.562 39.375 183.188 39.1875 183.75 39C184.125 38.9375 184.438 39 184.688 39.1875C184.938 39.375 185.156 39.5938 185.344 39.8438C185.594 40.0312 185.781 40.1562 185.906 40.2188C186.094 40.2812 186.281 40.0938 186.469 39.6562C186.969 39.7188 187.094 39.9375 186.844 40.3125C186.656 40.6875 186.531 40.9375 186.469 41.0625C187.094 40.9375 187.594 41.0625 187.969 41.4375C188.406 41.75 189.062 41.9688 189.938 42.0938C190.25 42.4062 190.344 42.6562 190.219 42.8438C190.094 43.0312 190 43.3438 189.938 43.7812C192.188 44.4688 193.625 45.5625 194.25 47.0625C194.875 48.5 194.938 50.0312 194.438 51.6562C193.938 53.2188 193 54.6875 191.625 56.0625C190.312 57.375 188.844 58.25 187.219 58.6875C185.281 59.1875 183.469 59.6875 181.781 60.1875C180.156 60.6875 178.562 61.25 177 61.875C175.5 62.5 174.062 63.25 172.688 64.125C171.375 64.9375 170.219 65.9062 169.219 67.0312C167.469 67.5312 165.875 68.2188 164.438 69.0938C163.062 69.9688 161.75 70.9375 160.5 72C159.312 73.0625 158.156 74.1875 157.031 75.375C155.906 76.5 154.781 77.625 153.656 78.75C153.656 79.8125 153.469 80.625 153.094 81.1875C152.719 81.75 152.312 82.3125 151.875 82.875C152 84.0625 152.25 85.0938 152.625 85.9688C153.062 86.7812 153.5 87.625 153.938 88.5C158.938 90 164.219 90.9375 169.781 91.3125C175.406 91.625 180.969 91.8125 186.469 91.875C187.031 92.625 187.656 93.3438 188.344 94.0312C189.094 94.6562 189.75 95.3125 190.312 96C190.938 96.6875 191.406 97.5 191.719 98.4375C192.094 99.3125 192.188 100.375 192 101.625C190.938 102.688 189.781 103.719 188.531 104.719C187.281 105.656 186.031 106.594 184.781 107.531C184.219 107.594 183.531 107.594 182.719 107.531C181.969 107.469 181.156 107.438 180.281 107.438C179.469 107.438 178.625 107.5 177.75 107.625C176.938 107.688 176.156 107.875 175.406 108.188C171.469 108.062 167.438 107.594 163.312 106.781C159.188 105.906 155.375 104.875 151.875 103.688C151.188 102.875 150.469 102.125 149.719 101.438C148.969 100.688 147.969 100.156 146.719 99.8438ZM251.344 79.875C251.281 80.625 251.344 81.3438 251.531 82.0312C251.719 82.7188 251.938 83.4062 252.188 84.0938C252.5 84.7188 252.781 85.375 253.031 86.0625C253.281 86.75 253.469 87.4375 253.594 88.125C253.719 89 253.719 89.9688 253.594 91.0312C253.469 92.0312 253.25 93.0312 252.938 94.0312C252.625 94.9688 252.219 95.8438 251.719 96.6562C251.219 97.4062 250.625 97.9688 249.938 98.3438C249.062 99.4688 248 100.344 246.75 100.969C245.5 101.594 244.344 102.344 243.281 103.219C242.594 103.656 241.812 103.969 240.938 104.156C240.125 104.344 239.281 104.531 238.406 104.719C237.719 105.094 236.906 105.5 235.969 105.938C235.031 106.312 234.062 106.688 233.062 107.062C232.062 107.375 231.062 107.625 230.062 107.812C229.062 107.938 228.188 107.969 227.438 107.906C225.562 108.594 223.719 109.031 221.906 109.219C220.156 109.469 218.094 109.344 215.719 108.844C213.469 109.156 211.375 109.062 209.438 108.562C207.562 108.062 205.875 107.281 204.375 106.219C202.938 105.094 201.656 103.781 200.531 102.281C199.469 100.719 198.594 99.0938 197.906 97.4062C197.406 93.8438 197.531 90.625 198.281 87.75C199.031 84.8125 200.094 82.125 201.469 79.6875C202.906 77.1875 204.531 74.9062 206.344 72.8438C208.156 70.7188 209.906 68.6562 211.594 66.6562C211.969 66.7812 212.25 66.7812 212.438 66.6562C212.688 66.4688 212.906 66.25 213.094 66C213.281 65.6875 213.469 65.4062 213.656 65.1562C213.906 64.9062 214.188 64.75 214.5 64.6875C214.938 63.75 215.562 63.0625 216.375 62.625C217.25 62.125 217.938 61.4375 218.438 60.5625C219 60.4375 219.469 60.25 219.844 60C220.219 59.75 220.562 59.4688 220.875 59.1562C221.25 58.8438 221.625 58.5625 222 58.3125C222.375 58 222.812 57.7812 223.312 57.6562V56.625C224.438 56.125 225.25 55.5625 225.75 54.9375C226.312 54.25 226.969 53.4375 227.719 52.5C228.281 52.4375 228.719 52.4062 229.031 52.4062C229.406 52.4062 229.938 52.3438 230.625 52.2188C231.125 51.3438 231.562 50.6875 231.938 50.25C232.375 49.8125 233 49.3438 233.812 48.8438C234.562 49.2188 235.375 49.4688 236.25 49.5938C237.188 49.7188 238 50.125 238.688 50.8125C238.75 51.4375 238.938 51.9375 239.25 52.3125C239.562 52.625 239.906 52.9375 240.281 53.25C240.656 53.5 241 53.7812 241.312 54.0938C241.688 54.4062 241.938 54.8438 242.062 55.4062C242.312 55.4688 242.469 55.4375 242.531 55.3125C242.656 55.1875 242.844 55.1562 243.094 55.2188C243.281 56.0938 243.5 56.6875 243.75 57C244 57.25 244.25 57.7812 244.5 58.5938C244.188 59.2188 243.938 59.875 243.75 60.5625C243.625 61.1875 243.25 61.6562 242.625 61.9688C242.562 62.4062 242.688 62.6562 243 62.7188C243.312 62.7188 243.5 62.875 243.562 63.1875C243.625 63.75 243.531 64.1562 243.281 64.4062C244.781 66.8438 246.125 69.4375 247.312 72.1875C248.5 74.875 249.844 77.4375 251.344 79.875ZM239.625 88.7812C239.875 88.0938 240.188 87.5312 240.562 87.0938C241 86.6562 241.25 86 241.312 85.125C241 84.625 240.812 84.25 240.75 84C240.688 83.6875 240.656 83.2188 240.656 82.5938C239.281 80.6562 238.094 78.5938 237.094 76.4062C236.094 74.1562 234.969 72.0625 233.719 70.125C233.594 70.375 233.375 70.625 233.062 70.875C232.75 71.125 232.406 71.0625 232.031 70.6875C231.906 71.1875 231.688 71.5625 231.375 71.8125C231.062 72 230.719 72.0938 230.344 72.0938C229.969 72.0312 229.562 71.9375 229.125 71.8125C228.75 71.625 228.406 71.4062 228.094 71.1562C226.281 72.5938 224.469 74 222.656 75.375C220.844 76.75 219.219 78.3438 217.781 80.1562C217.531 80.2812 217.375 80.3438 217.312 80.3438C217.25 80.2812 217.062 80.3125 216.75 80.4375C216.25 81.625 215.625 82.7188 214.875 83.7188C214.188 84.6562 213.5 85.625 212.812 86.625C212.125 87.625 211.531 88.6875 211.031 89.8125C210.531 90.9375 210.25 92.25 210.188 93.75C211.25 94.625 212.5 95.1562 213.938 95.3438C215.375 95.5312 216.844 95.5625 218.344 95.4375C219.906 95.3125 221.406 95.125 222.844 94.875C224.344 94.5625 225.719 94.4062 226.969 94.4062C229.594 93.7812 231.844 92.9688 233.719 91.9688C235.594 90.9062 237.562 89.8438 239.625 88.7812ZM321.938 106.312C321.312 106.625 320.719 106.906 320.156 107.156C319.656 107.406 319.062 107.531 318.375 107.531C315.938 105.719 314.656 102.562 314.531 98.0625C314.469 93.5625 315.438 87.8438 317.438 80.9062C317.75 80.7188 317.906 80.3438 317.906 79.7812L317.062 78.8438C316.812 78.8438 316.562 78.875 316.312 78.9375C316.125 79 315.969 79.2188 315.844 79.5938C314.219 80.7812 312.438 82.0312 310.5 83.3438C308.562 84.5938 306.531 85.7812 304.406 86.9062C302.344 87.9688 300.219 88.8438 298.031 89.5312C295.906 90.2188 293.812 90.5625 291.75 90.5625C286.5 90.5625 282.562 87.9062 279.938 82.5938L279.188 81.1875L278.438 82.4062C278.25 82.6562 277.969 83.1875 277.594 84C277.219 84.75 276.844 85.625 276.469 86.625C276.094 87.625 275.75 88.6562 275.438 89.7188C275.188 90.7188 275.094 91.5938 275.156 92.3438C274.594 92.9062 274 93.5625 273.375 94.3125C272.75 95.0625 272.281 95.9062 271.969 96.8438C271.844 97.3438 271.906 97.8125 272.156 98.25C272.031 98.8125 271.75 99.25 271.312 99.5625C271.062 99.875 270.781 100.188 270.469 100.5C270.219 100.75 270 101.031 269.812 101.344C269.688 101.656 269.594 101.969 269.531 102.281C269.531 102.594 269.5 102.906 269.438 103.219C269.438 103.656 269.375 104.062 269.25 104.438C268.188 106.625 267.344 108.031 266.719 108.656C266.094 109.344 265.25 109.688 264.188 109.688C263.688 109.688 262.875 109.594 261.75 109.406C260.938 108.531 260.188 107.344 259.5 105.844C258.875 104.281 258.375 102.625 258 100.875C257.688 99.125 257.531 97.375 257.531 95.625C257.594 93.8125 257.906 92.25 258.469 90.9375C258.469 90.875 258.719 90.25 259.219 89.0625C259.719 87.875 260.344 86.3438 261.094 84.4688C261.906 82.5938 262.812 80.5312 263.812 78.2812C264.812 75.9688 265.812 73.75 266.812 71.625C267.812 69.4375 268.75 67.4375 269.625 65.625C270.562 63.8125 271.344 62.4375 271.969 61.5C272.469 60.75 272.906 60.0625 273.281 59.4375C273.719 58.75 274.125 58.0938 274.5 57.4688C275.625 55.5312 276.688 53.9375 277.688 52.6875C278.75 51.375 280.281 50.3438 282.281 49.5938C283.656 50.1562 284.656 50.8125 285.281 51.5625L285.469 52.5938C285.719 53.2188 286.094 53.5312 286.594 53.5312C287.281 53.7188 287.844 53.9062 288.281 54.0938C288.781 54.2188 289.312 54.3438 289.875 54.4688C290.312 54.9688 290.719 55.5625 291.094 56.25C291.594 57 292.062 57.75 292.5 58.5C293 59.1875 293.375 59.9062 293.625 60.6562C293.938 61.3438 294.094 62.0625 294.094 62.8125C294.156 63.5625 294.031 64.3438 293.719 65.1562L293.812 66.0938C294.125 66.6562 294.188 67.4375 294 68.4375C293.938 68.875 293.906 69.3438 293.906 69.8438C293.906 70.2812 293.969 70.7812 294.094 71.3438C295.219 72.2188 296.219 72.6562 297.094 72.6562C298.094 72.6562 299 72.4375 299.812 72C300.688 71.5 301.5 71 302.25 70.5C302.75 70.125 303.25 69.8125 303.75 69.5625C304.25 69.25 304.75 69.0625 305.25 69C306.375 67.9375 307.375 67 308.25 66.1875C309.188 65.375 310.156 64.5625 311.156 63.75C313.031 62.25 314.844 60.625 316.594 58.875C318.344 57.125 319.75 54.9375 320.812 52.3125C321.438 51.9375 322.094 51.75 322.781 51.75C323.469 51.75 324.188 51.9062 324.938 52.2188C325.688 52.5312 326.406 52.8438 327.094 53.1562C327.281 53.2812 327.438 53.375 327.562 53.4375C327.75 53.5 327.906 53.5625 328.031 53.625C328.031 54.25 328.281 54.7812 328.781 55.2188C329.031 55.4062 329.188 55.5312 329.25 55.5938C329.312 55.6562 329.406 55.7188 329.531 55.7812C330.469 56.2812 331.062 56.7812 331.312 57.2812C331.75 58.7188 332.531 59.8125 333.656 60.5625C333.531 61.1875 333.531 61.7812 333.656 62.3438C333.844 62.8438 334.062 63.375 334.312 63.9375C334.375 64.125 334.438 64.3125 334.5 64.5C334.562 64.6875 334.656 64.9062 334.781 65.1562L333 64.9688L333.281 66.75C333.406 67.625 333.312 68.5938 333 69.6562C332.75 70.7188 332.438 71.5625 332.062 72.1875C332.125 73.8125 332.156 75.0938 332.156 76.0312C332.219 76.9062 332.188 77.75 332.062 78.5625C331.938 79.3125 331.75 80.0312 331.5 80.7188C331.312 81.4062 331.031 82.1562 330.656 82.9688C330.906 86.9688 330.438 90.625 329.25 93.9375C328.125 97.1875 326.938 100.25 325.688 103.125C325.562 103.438 325.406 103.75 325.219 104.062C325.094 104.375 324.969 104.688 324.844 105C324.281 105.188 323.781 105.406 323.344 105.656C322.906 105.844 322.438 106.062 321.938 106.312ZM400.125 106.312C399.5 106.625 398.906 106.906 398.344 107.156C397.844 107.406 397.25 107.531 396.562 107.531C394.125 105.719 392.844 102.562 392.719 98.0625C392.656 93.5625 393.625 87.8438 395.625 80.9062C395.938 80.7188 396.094 80.3438 396.094 79.7812L395.25 78.8438C395 78.8438 394.75 78.875 394.5 78.9375C394.312 79 394.156 79.2188 394.031 79.5938C392.406 80.7812 390.625 82.0312 388.688 83.3438C386.75 84.5938 384.719 85.7812 382.594 86.9062C380.531 87.9688 378.406 88.8438 376.219 89.5312C374.094 90.2188 372 90.5625 369.938 90.5625C364.688 90.5625 360.75 87.9062 358.125 82.5938L357.375 81.1875L356.625 82.4062C356.438 82.6562 356.156 83.1875 355.781 84C355.406 84.75 355.031 85.625 354.656 86.625C354.281 87.625 353.938 88.6562 353.625 89.7188C353.375 90.7188 353.281 91.5938 353.344 92.3438C352.781 92.9062 352.188 93.5625 351.562 94.3125C350.938 95.0625 350.469 95.9062 350.156 96.8438C350.031 97.3438 350.094 97.8125 350.344 98.25C350.219 98.8125 349.938 99.25 349.5 99.5625C349.25 99.875 348.969 100.188 348.656 100.5C348.406 100.75 348.188 101.031 348 101.344C347.875 101.656 347.781 101.969 347.719 102.281C347.719 102.594 347.688 102.906 347.625 103.219C347.625 103.656 347.562 104.062 347.438 104.438C346.375 106.625 345.531 108.031 344.906 108.656C344.281 109.344 343.438 109.688 342.375 109.688C341.875 109.688 341.062 109.594 339.938 109.406C339.125 108.531 338.375 107.344 337.688 105.844C337.062 104.281 336.562 102.625 336.188 100.875C335.875 99.125 335.719 97.375 335.719 95.625C335.781 93.8125 336.094 92.25 336.656 90.9375C336.656 90.875 336.906 90.25 337.406 89.0625C337.906 87.875 338.531 86.3438 339.281 84.4688C340.094 82.5938 341 80.5312 342 78.2812C343 75.9688 344 73.75 345 71.625C346 69.4375 346.938 67.4375 347.812 65.625C348.75 63.8125 349.531 62.4375 350.156 61.5C350.656 60.75 351.094 60.0625 351.469 59.4375C351.906 58.75 352.312 58.0938 352.688 57.4688C353.812 55.5312 354.875 53.9375 355.875 52.6875C356.938 51.375 358.469 50.3438 360.469 49.5938C361.844 50.1562 362.844 50.8125 363.469 51.5625L363.656 52.5938C363.906 53.2188 364.281 53.5312 364.781 53.5312C365.469 53.7188 366.031 53.9062 366.469 54.0938C366.969 54.2188 367.5 54.3438 368.062 54.4688C368.5 54.9688 368.906 55.5625 369.281 56.25C369.781 57 370.25 57.75 370.688 58.5C371.188 59.1875 371.562 59.9062 371.812 60.6562C372.125 61.3438 372.281 62.0625 372.281 62.8125C372.344 63.5625 372.219 64.3438 371.906 65.1562L372 66.0938C372.312 66.6562 372.375 67.4375 372.188 68.4375C372.125 68.875 372.094 69.3438 372.094 69.8438C372.094 70.2812 372.156 70.7812 372.281 71.3438C373.406 72.2188 374.406 72.6562 375.281 72.6562C376.281 72.6562 377.188 72.4375 378 72C378.875 71.5 379.688 71 380.438 70.5C380.938 70.125 381.438 69.8125 381.938 69.5625C382.438 69.25 382.938 69.0625 383.438 69C384.562 67.9375 385.562 67 386.438 66.1875C387.375 65.375 388.344 64.5625 389.344 63.75C391.219 62.25 393.031 60.625 394.781 58.875C396.531 57.125 397.938 54.9375 399 52.3125C399.625 51.9375 400.281 51.75 400.969 51.75C401.656 51.75 402.375 51.9062 403.125 52.2188C403.875 52.5312 404.594 52.8438 405.281 53.1562C405.469 53.2812 405.625 53.375 405.75 53.4375C405.938 53.5 406.094 53.5625 406.219 53.625C406.219 54.25 406.469 54.7812 406.969 55.2188C407.219 55.4062 407.375 55.5312 407.438 55.5938C407.5 55.6562 407.594 55.7188 407.719 55.7812C408.656 56.2812 409.25 56.7812 409.5 57.2812C409.938 58.7188 410.719 59.8125 411.844 60.5625C411.719 61.1875 411.719 61.7812 411.844 62.3438C412.031 62.8438 412.25 63.375 412.5 63.9375C412.562 64.125 412.625 64.3125 412.688 64.5C412.75 64.6875 412.844 64.9062 412.969 65.1562L411.188 64.9688L411.469 66.75C411.594 67.625 411.5 68.5938 411.188 69.6562C410.938 70.7188 410.625 71.5625 410.25 72.1875C410.312 73.8125 410.344 75.0938 410.344 76.0312C410.406 76.9062 410.375 77.75 410.25 78.5625C410.125 79.3125 409.938 80.0312 409.688 80.7188C409.5 81.4062 409.219 82.1562 408.844 82.9688C409.094 86.9688 408.625 90.625 407.438 93.9375C406.312 97.1875 405.125 100.25 403.875 103.125C403.75 103.438 403.594 103.75 403.406 104.062C403.281 104.375 403.156 104.688 403.031 105C402.469 105.188 401.969 105.406 401.531 105.656C401.094 105.844 400.625 106.062 400.125 106.312ZM468.094 79.875C468.031 80.625 468.094 81.3438 468.281 82.0312C468.469 82.7188 468.688 83.4062 468.938 84.0938C469.25 84.7188 469.531 85.375 469.781 86.0625C470.031 86.75 470.219 87.4375 470.344 88.125C470.469 89 470.469 89.9688 470.344 91.0312C470.219 92.0312 470 93.0312 469.688 94.0312C469.375 94.9688 468.969 95.8438 468.469 96.6562C467.969 97.4062 467.375 97.9688 466.688 98.3438C465.812 99.4688 464.75 100.344 463.5 100.969C462.25 101.594 461.094 102.344 460.031 103.219C459.344 103.656 458.562 103.969 457.688 104.156C456.875 104.344 456.031 104.531 455.156 104.719C454.469 105.094 453.656 105.5 452.719 105.938C451.781 106.312 450.812 106.688 449.812 107.062C448.812 107.375 447.812 107.625 446.812 107.812C445.812 107.938 444.938 107.969 444.188 107.906C442.312 108.594 440.469 109.031 438.656 109.219C436.906 109.469 434.844 109.344 432.469 108.844C430.219 109.156 428.125 109.062 426.188 108.562C424.312 108.062 422.625 107.281 421.125 106.219C419.688 105.094 418.406 103.781 417.281 102.281C416.219 100.719 415.344 99.0938 414.656 97.4062C414.156 93.8438 414.281 90.625 415.031 87.75C415.781 84.8125 416.844 82.125 418.219 79.6875C419.656 77.1875 421.281 74.9062 423.094 72.8438C424.906 70.7188 426.656 68.6562 428.344 66.6562C428.719 66.7812 429 66.7812 429.188 66.6562C429.438 66.4688 429.656 66.25 429.844 66C430.031 65.6875 430.219 65.4062 430.406 65.1562C430.656 64.9062 430.938 64.75 431.25 64.6875C431.688 63.75 432.312 63.0625 433.125 62.625C434 62.125 434.688 61.4375 435.188 60.5625C435.75 60.4375 436.219 60.25 436.594 60C436.969 59.75 437.312 59.4688 437.625 59.1562C438 58.8438 438.375 58.5625 438.75 58.3125C439.125 58 439.562 57.7812 440.062 57.6562V56.625C441.188 56.125 442 55.5625 442.5 54.9375C443.062 54.25 443.719 53.4375 444.469 52.5C445.031 52.4375 445.469 52.4062 445.781 52.4062C446.156 52.4062 446.688 52.3438 447.375 52.2188C447.875 51.3438 448.312 50.6875 448.688 50.25C449.125 49.8125 449.75 49.3438 450.562 48.8438C451.312 49.2188 452.125 49.4688 453 49.5938C453.938 49.7188 454.75 50.125 455.438 50.8125C455.5 51.4375 455.688 51.9375 456 52.3125C456.312 52.625 456.656 52.9375 457.031 53.25C457.406 53.5 457.75 53.7812 458.062 54.0938C458.438 54.4062 458.688 54.8438 458.812 55.4062C459.062 55.4688 459.219 55.4375 459.281 55.3125C459.406 55.1875 459.594 55.1562 459.844 55.2188C460.031 56.0938 460.25 56.6875 460.5 57C460.75 57.25 461 57.7812 461.25 58.5938C460.938 59.2188 460.688 59.875 460.5 60.5625C460.375 61.1875 460 61.6562 459.375 61.9688C459.312 62.4062 459.438 62.6562 459.75 62.7188C460.062 62.7188 460.25 62.875 460.312 63.1875C460.375 63.75 460.281 64.1562 460.031 64.4062C461.531 66.8438 462.875 69.4375 464.062 72.1875C465.25 74.875 466.594 77.4375 468.094 79.875ZM456.375 88.7812C456.625 88.0938 456.938 87.5312 457.312 87.0938C457.75 86.6562 458 86 458.062 85.125C457.75 84.625 457.562 84.25 457.5 84C457.438 83.6875 457.406 83.2188 457.406 82.5938C456.031 80.6562 454.844 78.5938 453.844 76.4062C452.844 74.1562 451.719 72.0625 450.469 70.125C450.344 70.375 450.125 70.625 449.812 70.875C449.5 71.125 449.156 71.0625 448.781 70.6875C448.656 71.1875 448.438 71.5625 448.125 71.8125C447.812 72 447.469 72.0938 447.094 72.0938C446.719 72.0312 446.312 71.9375 445.875 71.8125C445.5 71.625 445.156 71.4062 444.844 71.1562C443.031 72.5938 441.219 74 439.406 75.375C437.594 76.75 435.969 78.3438 434.531 80.1562C434.281 80.2812 434.125 80.3438 434.062 80.3438C434 80.2812 433.812 80.3125 433.5 80.4375C433 81.625 432.375 82.7188 431.625 83.7188C430.938 84.6562 430.25 85.625 429.562 86.625C428.875 87.625 428.281 88.6875 427.781 89.8125C427.281 90.9375 427 92.25 426.938 93.75C428 94.625 429.25 95.1562 430.688 95.3438C432.125 95.5312 433.594 95.5625 435.094 95.4375C436.656 95.3125 438.156 95.125 439.594 94.875C441.094 94.5625 442.469 94.4062 443.719 94.4062C446.344 93.7812 448.594 92.9688 450.469 91.9688C452.344 90.9062 454.312 89.8438 456.375 88.7812ZM493.031 90.9375C492.469 91.0625 492.062 91.4062 491.812 91.9688C491.562 92.4688 491.312 93 491.062 93.5625C490.875 94.125 490.656 94.6562 490.406 95.1562C490.219 95.5938 489.906 95.8125 489.469 95.8125C489.406 96.3125 489.219 96.75 488.906 97.125C488.656 97.5 488.406 97.9062 488.156 98.3438C487.906 98.7188 487.719 99.1562 487.594 99.6562C487.469 100.094 487.531 100.625 487.781 101.25C487.281 101.625 486.969 102.156 486.844 102.844C486.719 103.531 486.562 104.188 486.375 104.812C486.25 105.438 486 105.969 485.625 106.406C485.25 106.844 484.562 107.031 483.562 106.969C483.375 107.219 483.344 107.375 483.469 107.438C483.594 107.5 483.688 107.719 483.75 108.094C483.062 107.969 482.531 108 482.156 108.188C481.844 108.438 481.438 108.594 480.938 108.656C479.75 108.281 478.75 107.625 477.938 106.688C477.188 105.75 476.5 104.719 475.875 103.594C475.312 102.406 474.781 101.219 474.281 100.031C473.844 98.8438 473.406 97.8125 472.969 96.9375C473.156 96.25 473.188 95.5938 473.062 94.9688C472.938 94.2812 472.719 93.7188 472.406 93.2812C475.469 86.7812 478.812 79.8438 482.438 72.4688C486.062 65.0938 489.5 57.8125 492.75 50.625C494.188 51.1875 495.594 51.8438 496.969 52.5938C498.406 53.2812 499.688 54.0938 500.812 55.0312C502 55.9688 503 57.0625 503.812 58.3125C504.625 59.5 505.156 60.8438 505.406 62.3438C505.281 62.7188 505.125 62.875 504.938 62.8125C504.812 62.6875 504.688 62.7188 504.562 62.9062C504.812 63.2188 504.938 63.4375 504.938 63.5625C505 63.6875 505 63.8125 504.938 63.9375C504.938 64.0625 504.938 64.25 504.938 64.5C504.938 64.6875 505.031 64.9688 505.219 65.3438C504.969 65.2812 504.781 65.3125 504.656 65.4375C504.594 65.5625 504.406 65.5625 504.094 65.4375C504.344 66.125 504.406 66.6875 504.281 67.125C504.219 67.5625 504.094 67.9688 503.906 68.3438C503.719 68.6562 503.562 69.0312 503.438 69.4688C503.312 69.8438 503.344 70.3438 503.531 70.9688C503.344 70.9688 503.188 71.0312 503.062 71.1562C503 71.2188 502.938 71.3125 502.875 71.4375C502.812 71.5 502.719 71.5938 502.594 71.7188C502.531 71.7812 502.406 71.7812 502.219 71.7188C502.406 73.0938 502.469 74.4688 502.406 75.8438C502.344 77.2188 502.281 78.625 502.219 80.0625C502.219 81.4375 502.25 82.9062 502.312 84.4688C502.375 85.9688 502.594 87.5312 502.969 89.1562C505.219 87.8438 507 86.1562 508.312 84.0938C509.688 82.0312 510.781 79.7188 511.594 77.1562C512.469 74.5938 513.125 71.8438 513.562 68.9062C514 65.9688 514.469 62.9688 514.969 59.9062C515.531 59.3438 515.969 58.6562 516.281 57.8438C516.594 57.0312 516.875 56.1875 517.125 55.3125C517.375 54.375 517.625 53.4688 517.875 52.5938C518.125 51.6562 518.438 50.8125 518.812 50.0625C519.75 50.1875 520.531 50.5 521.156 51C521.844 51.4375 522.469 51.9375 523.031 52.5C523.594 53 524.188 53.5 524.812 54C525.438 54.4375 526.219 54.7188 527.156 54.8438C527.906 55.9062 528.594 56.9375 529.219 57.9375C529.844 58.9375 530.25 60 530.438 61.125C530.125 61.625 529.875 62.1875 529.688 62.8125C529.562 63.4375 529.406 64.0625 529.219 64.6875C529.031 65.3125 528.781 65.9062 528.469 66.4688C528.156 66.9688 527.719 67.4062 527.156 67.7812C526.969 69.4062 526.719 70.9062 526.406 72.2812C526.156 73.5938 525.875 74.9062 525.562 76.2188C525.312 77.5312 525.094 78.9062 524.906 80.3438C524.719 81.7188 524.656 83.25 524.719 84.9375C524.219 86.375 523.688 87.9062 523.125 89.5312C522.562 91.1562 522.125 92.625 521.812 93.9375C520.812 94.75 520.031 95.7188 519.469 96.8438C518.906 97.9688 518.312 99.0938 517.688 100.219C517.438 100.469 517.281 100.531 517.219 100.406C517.156 100.281 516.938 100.188 516.562 100.125C516.625 100.375 516.625 100.562 516.562 100.688C516.5 100.812 516.406 100.938 516.281 101.062C516.219 101.125 516.156 101.25 516.094 101.438C516.094 101.625 516.156 101.875 516.281 102.188C515.406 102.562 514.625 103.094 513.938 103.781C513.25 104.469 512.5 105.094 511.688 105.656C510.938 106.219 510 106.594 508.875 106.781C507.812 106.969 506.406 106.75 504.656 106.125C502.094 104.25 499.812 102.094 497.812 99.6562C495.875 97.2188 494.281 94.3125 493.031 90.9375ZM529.5 65.8125C529.938 64.5 530.625 63.375 531.562 62.4375C532.562 61.5 533.625 60.7188 534.75 60.0938C535.938 59.4062 537.156 58.8438 538.406 58.4062C539.656 57.9688 540.844 57.5938 541.969 57.2812C544.469 56.2188 547.125 55.2188 549.938 54.2812C552.812 53.2812 555.719 52.4062 558.656 51.6562C561.656 50.9062 564.719 50.4375 567.844 50.25C570.969 50 574.25 50.375 577.688 51.375C577.875 52 578.156 52.5938 578.531 53.1562C578.906 53.7188 579.281 54.2812 579.656 54.8438C580.094 55.4062 580.469 55.9688 580.781 56.5312C581.094 57.0312 581.281 57.5625 581.344 58.125C581.969 58.6875 582.469 59.3125 582.844 60C583.219 60.625 583.281 61.4688 583.031 62.5312C582.406 63.0312 581.781 63.5 581.156 63.9375C580.594 64.3125 579.969 64.6562 579.281 64.9688C576.969 64.4062 574.625 64.2188 572.25 64.4062C569.875 64.5938 567.75 64.75 565.875 64.875C565.312 64.3125 564.625 64.0312 563.812 64.0312C563.062 64.0312 562.25 64.1562 561.375 64.4062C560.562 64.6562 559.719 64.9062 558.844 65.1562C558.031 65.4062 557.25 65.4688 556.5 65.3438C555.875 65.8438 555.094 66.1875 554.156 66.375C553.281 66.5 552.312 66.625 551.25 66.75C551.188 67.0625 551.25 67.2812 551.438 67.4062C551.625 67.4688 551.656 67.6562 551.531 67.9688C551.906 68.4062 552.375 68.7188 552.938 68.9062C553.562 69.0938 554.188 69.2812 554.812 69.4688C555.5 69.6562 556.094 69.9062 556.594 70.2188C557.094 70.4688 557.438 70.9062 557.625 71.5312C558.562 71.5312 559.375 71.75 560.062 72.1875C560.75 72.625 561.312 73.1562 561.75 73.7812C562.188 74.4062 562.5 75.0938 562.688 75.8438C562.938 76.5312 563.062 77.1562 563.062 77.7188C563.25 78.2188 563.469 78.4375 563.719 78.375C563.969 78.3125 564.25 78.4375 564.562 78.75C564.75 79.5625 565.219 80.4062 565.969 81.2812C566.719 82.0938 567.312 83 567.75 84C567.875 85.5625 567.969 86.9688 568.031 88.2188C568.094 89.4062 567.875 90.625 567.375 91.875C566.438 94.1875 565.125 96.25 563.438 98.0625C561.812 99.875 559.938 101.5 557.812 102.938C555.75 104.312 553.531 105.5 551.156 106.5C548.781 107.5 546.469 108.344 544.219 109.031C543.969 108.969 543.719 108.969 543.469 109.031C543.219 109.094 543.156 108.938 543.281 108.562C542.781 109 542.219 109.281 541.594 109.406C541.031 109.531 540.406 109.562 539.719 109.5C539.031 109.5 538.312 109.469 537.562 109.406C536.875 109.344 536.219 109.375 535.594 109.5C535.156 109.062 534.75 108.625 534.375 108.188C534.062 107.812 533.812 107.312 533.625 106.688C533.312 106.688 533.156 106.531 533.156 106.219C533.219 105.906 533.125 105.75 532.875 105.75C533.25 105.125 533.406 104.781 533.344 104.719C533.344 104.594 533.25 104.5 533.062 104.438C532.938 104.375 532.812 104.312 532.688 104.25C532.562 104.125 532.531 103.969 532.594 103.781C532.844 103.281 532.938 102.719 532.875 102.094C532.812 101.406 532.75 100.719 532.688 100.031C532.625 99.3438 532.656 98.6875 532.781 98.0625C532.969 97.4375 533.438 96.9375 534.188 96.5625C536.312 96.8125 538.312 96.75 540.188 96.375C542.125 95.9375 543.938 95.3438 545.625 94.5938C547.312 93.8438 548.906 93.0312 550.406 92.1562C551.969 91.2812 553.5 90.5 555 89.8125C555.188 89.25 555.438 88.7812 555.75 88.4062C556.125 88.0312 556.5 87.6875 556.875 87.375C557.25 87.0625 557.594 86.7188 557.906 86.3438C558.219 85.9688 558.438 85.5 558.562 84.9375C558.625 84.5 558.5 84.25 558.188 84.1875C557.938 84.0625 557.812 83.8125 557.812 83.4375L556.781 83.1562C555.594 82.4688 554.25 81.9062 552.75 81.4688C551.25 80.9688 549.969 80.4375 548.906 79.875C548.219 80.25 547.562 80.3438 546.938 80.1562C546.375 79.9688 545.625 79.7812 544.688 79.5938C542.562 79.4688 540.5 79.25 538.5 78.9375C536.562 78.625 534.688 78.0625 532.875 77.25C532.75 76.9375 532.594 76.6562 532.406 76.4062C532.219 76.1562 531.875 76.0938 531.375 76.2188C531 75.7188 530.625 75.25 530.25 74.8125C529.875 74.3125 529.531 73.7812 529.219 73.2188C529.344 72.4688 529.438 71.8438 529.5 71.3438C529.562 70.7812 529.375 70.25 528.938 69.75C529.188 68.9375 529.375 68.2812 529.5 67.7812C529.625 67.2812 529.625 66.625 529.5 65.8125Z" fill="#FDDC35"/>
</svg>
