<svg width="666" height="220" viewBox="0 0 666 220" fill="none" xmlns="http://www.w3.org/2000/svg">
<rect width="200" height="200" fill="#FDDC35"/>
<path d="M78.3636 95.9091V159.727C78.2727 166.909 75.2727 170.636 69.6364 170.636C64.0909 170.636 61 166.955 60.7273 159.909H35.4545C35.3636 181.364 50.0909 190.273 68 190.273C88.6364 190.273 103.182 177.909 103.273 159.727V95.9091H78.3636ZM165.432 125H189.614C189.523 106.727 175.432 94.6364 152.886 94.6364C130.75 94.6364 115.114 106.545 115.25 124.273C115.205 138.818 125.295 146.909 141.795 150.455L151.068 152.455C161.432 154.727 164.977 157.318 165.068 161.545C164.977 166.136 160.795 169.364 152.705 169.364C143.023 169.364 137.295 164.818 136.886 156.273H112.886C112.977 179.636 128.795 190.091 153.068 190.091C176.659 190.091 190.795 179.909 190.886 161.545C190.795 147.364 182.341 137.409 161.795 133L154.159 131.364C145.341 129.5 141.386 126.909 141.614 122.455C141.659 118.364 145.068 115.364 152.886 115.364C161.068 115.364 164.932 118.955 165.432 125Z" fill="#111827"/>
<path d="M228.719 172.844C226.906 171.469 225.406 169.75 224.219 167.688C223.094 165.625 222.188 163.438 221.5 161.125C220.875 158.812 220.438 156.438 220.188 154C220 151.5 219.938 149.125 220 146.875C220.562 145.188 221.25 143.656 222.062 142.281C222.875 140.844 223.781 139.5 224.781 138.25C225.781 136.938 226.812 135.719 227.875 134.594C229 133.406 230.094 132.219 231.156 131.031C231.531 131.031 231.875 131.125 232.188 131.312C232.438 130.625 232.812 130.031 233.312 129.531C233.812 129.031 234.344 128.594 234.906 128.219C235.469 127.781 236.031 127.375 236.594 127C237.156 126.562 237.625 126.062 238 125.5C239.562 125.125 240.938 124.594 242.125 123.906C243.375 123.219 244.562 122.469 245.688 121.656C246.812 120.844 247.969 120.094 249.156 119.406C250.344 118.719 251.719 118.188 253.281 117.812C253.844 117.188 254.531 116.656 255.344 116.219C256.219 115.781 257.062 115.375 257.875 115C258.75 114.625 259.562 114.219 260.312 113.781C261.125 113.344 261.781 112.75 262.281 112C262.656 112.5 263.188 112.688 263.875 112.562C264.562 112.375 265.188 112.188 265.75 112C266.125 111.938 266.438 112 266.688 112.188C266.938 112.375 267.156 112.594 267.344 112.844C267.594 113.031 267.781 113.156 267.906 113.219C268.094 113.281 268.281 113.094 268.469 112.656C268.969 112.719 269.094 112.938 268.844 113.312C268.656 113.688 268.531 113.938 268.469 114.062C269.094 113.938 269.594 114.062 269.969 114.438C270.406 114.75 271.062 114.969 271.938 115.094C272.25 115.406 272.344 115.656 272.219 115.844C272.094 116.031 272 116.344 271.938 116.781C274.188 117.469 275.625 118.562 276.25 120.062C276.875 121.5 276.938 123.031 276.438 124.656C275.938 126.219 275 127.688 273.625 129.062C272.312 130.375 270.844 131.25 269.219 131.688C267.281 132.188 265.469 132.688 263.781 133.188C262.156 133.688 260.562 134.25 259 134.875C257.5 135.5 256.062 136.25 254.688 137.125C253.375 137.938 252.219 138.906 251.219 140.031C249.469 140.531 247.875 141.219 246.438 142.094C245.062 142.969 243.75 143.938 242.5 145C241.312 146.062 240.156 147.188 239.031 148.375C237.906 149.5 236.781 150.625 235.656 151.75C235.656 152.812 235.469 153.625 235.094 154.188C234.719 154.75 234.312 155.312 233.875 155.875C234 157.062 234.25 158.094 234.625 158.969C235.062 159.781 235.5 160.625 235.938 161.5C240.938 163 246.219 163.938 251.781 164.312C257.406 164.625 262.969 164.812 268.469 164.875C269.031 165.625 269.656 166.344 270.344 167.031C271.094 167.656 271.75 168.312 272.312 169C272.938 169.688 273.406 170.5 273.719 171.438C274.094 172.312 274.188 173.375 274 174.625C272.938 175.688 271.781 176.719 270.531 177.719C269.281 178.656 268.031 179.594 266.781 180.531C266.219 180.594 265.531 180.594 264.719 180.531C263.969 180.469 263.156 180.438 262.281 180.438C261.469 180.438 260.625 180.5 259.75 180.625C258.938 180.688 258.156 180.875 257.406 181.188C253.469 181.062 249.438 180.594 245.312 179.781C241.188 178.906 237.375 177.875 233.875 176.688C233.188 175.875 232.469 175.125 231.719 174.438C230.969 173.688 229.969 173.156 228.719 172.844ZM333.344 152.875C333.281 153.625 333.344 154.344 333.531 155.031C333.719 155.719 333.938 156.406 334.188 157.094C334.5 157.719 334.781 158.375 335.031 159.062C335.281 159.75 335.469 160.438 335.594 161.125C335.719 162 335.719 162.969 335.594 164.031C335.469 165.031 335.25 166.031 334.938 167.031C334.625 167.969 334.219 168.844 333.719 169.656C333.219 170.406 332.625 170.969 331.938 171.344C331.062 172.469 330 173.344 328.75 173.969C327.5 174.594 326.344 175.344 325.281 176.219C324.594 176.656 323.812 176.969 322.938 177.156C322.125 177.344 321.281 177.531 320.406 177.719C319.719 178.094 318.906 178.5 317.969 178.938C317.031 179.312 316.062 179.688 315.062 180.062C314.062 180.375 313.062 180.625 312.062 180.812C311.062 180.938 310.188 180.969 309.438 180.906C307.562 181.594 305.719 182.031 303.906 182.219C302.156 182.469 300.094 182.344 297.719 181.844C295.469 182.156 293.375 182.062 291.438 181.562C289.562 181.062 287.875 180.281 286.375 179.219C284.938 178.094 283.656 176.781 282.531 175.281C281.469 173.719 280.594 172.094 279.906 170.406C279.406 166.844 279.531 163.625 280.281 160.75C281.031 157.812 282.094 155.125 283.469 152.688C284.906 150.188 286.531 147.906 288.344 145.844C290.156 143.719 291.906 141.656 293.594 139.656C293.969 139.781 294.25 139.781 294.438 139.656C294.688 139.469 294.906 139.25 295.094 139C295.281 138.688 295.469 138.406 295.656 138.156C295.906 137.906 296.188 137.75 296.5 137.688C296.938 136.75 297.562 136.062 298.375 135.625C299.25 135.125 299.938 134.438 300.438 133.562C301 133.438 301.469 133.25 301.844 133C302.219 132.75 302.562 132.469 302.875 132.156C303.25 131.844 303.625 131.562 304 131.312C304.375 131 304.812 130.781 305.312 130.656V129.625C306.438 129.125 307.25 128.562 307.75 127.938C308.312 127.25 308.969 126.438 309.719 125.5C310.281 125.438 310.719 125.406 311.031 125.406C311.406 125.406 311.938 125.344 312.625 125.219C313.125 124.344 313.562 123.688 313.938 123.25C314.375 122.812 315 122.344 315.812 121.844C316.562 122.219 317.375 122.469 318.25 122.594C319.188 122.719 320 123.125 320.688 123.812C320.75 124.438 320.938 124.938 321.25 125.312C321.562 125.625 321.906 125.938 322.281 126.25C322.656 126.5 323 126.781 323.312 127.094C323.688 127.406 323.938 127.844 324.062 128.406C324.312 128.469 324.469 128.438 324.531 128.312C324.656 128.188 324.844 128.156 325.094 128.219C325.281 129.094 325.5 129.688 325.75 130C326 130.25 326.25 130.781 326.5 131.594C326.188 132.219 325.938 132.875 325.75 133.562C325.625 134.188 325.25 134.656 324.625 134.969C324.562 135.406 324.688 135.656 325 135.719C325.312 135.719 325.5 135.875 325.562 136.188C325.625 136.75 325.531 137.156 325.281 137.406C326.781 139.844 328.125 142.438 329.312 145.188C330.5 147.875 331.844 150.438 333.344 152.875ZM321.625 161.781C321.875 161.094 322.188 160.531 322.562 160.094C323 159.656 323.25 159 323.312 158.125C323 157.625 322.812 157.25 322.75 157C322.688 156.688 322.656 156.219 322.656 155.594C321.281 153.656 320.094 151.594 319.094 149.406C318.094 147.156 316.969 145.062 315.719 143.125C315.594 143.375 315.375 143.625 315.062 143.875C314.75 144.125 314.406 144.062 314.031 143.688C313.906 144.188 313.688 144.562 313.375 144.812C313.062 145 312.719 145.094 312.344 145.094C311.969 145.031 311.562 144.938 311.125 144.812C310.75 144.625 310.406 144.406 310.094 144.156C308.281 145.594 306.469 147 304.656 148.375C302.844 149.75 301.219 151.344 299.781 153.156C299.531 153.281 299.375 153.344 299.312 153.344C299.25 153.281 299.062 153.312 298.75 153.438C298.25 154.625 297.625 155.719 296.875 156.719C296.188 157.656 295.5 158.625 294.812 159.625C294.125 160.625 293.531 161.688 293.031 162.812C292.531 163.938 292.25 165.25 292.188 166.75C293.25 167.625 294.5 168.156 295.938 168.344C297.375 168.531 298.844 168.562 300.344 168.438C301.906 168.312 303.406 168.125 304.844 167.875C306.344 167.562 307.719 167.406 308.969 167.406C311.594 166.781 313.844 165.969 315.719 164.969C317.594 163.906 319.562 162.844 321.625 161.781ZM403.938 179.312C403.312 179.625 402.719 179.906 402.156 180.156C401.656 180.406 401.062 180.531 400.375 180.531C397.938 178.719 396.656 175.562 396.531 171.062C396.469 166.562 397.438 160.844 399.438 153.906C399.75 153.719 399.906 153.344 399.906 152.781L399.062 151.844C398.812 151.844 398.562 151.875 398.312 151.938C398.125 152 397.969 152.219 397.844 152.594C396.219 153.781 394.438 155.031 392.5 156.344C390.562 157.594 388.531 158.781 386.406 159.906C384.344 160.969 382.219 161.844 380.031 162.531C377.906 163.219 375.812 163.562 373.75 163.562C368.5 163.562 364.562 160.906 361.938 155.594L361.188 154.188L360.438 155.406C360.25 155.656 359.969 156.188 359.594 157C359.219 157.75 358.844 158.625 358.469 159.625C358.094 160.625 357.75 161.656 357.438 162.719C357.188 163.719 357.094 164.594 357.156 165.344C356.594 165.906 356 166.562 355.375 167.312C354.75 168.062 354.281 168.906 353.969 169.844C353.844 170.344 353.906 170.812 354.156 171.25C354.031 171.812 353.75 172.25 353.312 172.562C353.062 172.875 352.781 173.188 352.469 173.5C352.219 173.75 352 174.031 351.812 174.344C351.688 174.656 351.594 174.969 351.531 175.281C351.531 175.594 351.5 175.906 351.438 176.219C351.438 176.656 351.375 177.062 351.25 177.438C350.188 179.625 349.344 181.031 348.719 181.656C348.094 182.344 347.25 182.688 346.188 182.688C345.688 182.688 344.875 182.594 343.75 182.406C342.938 181.531 342.188 180.344 341.5 178.844C340.875 177.281 340.375 175.625 340 173.875C339.688 172.125 339.531 170.375 339.531 168.625C339.594 166.812 339.906 165.25 340.469 163.938C340.469 163.875 340.719 163.25 341.219 162.062C341.719 160.875 342.344 159.344 343.094 157.469C343.906 155.594 344.812 153.531 345.812 151.281C346.812 148.969 347.812 146.75 348.812 144.625C349.812 142.438 350.75 140.438 351.625 138.625C352.562 136.812 353.344 135.438 353.969 134.5C354.469 133.75 354.906 133.062 355.281 132.438C355.719 131.75 356.125 131.094 356.5 130.469C357.625 128.531 358.688 126.938 359.688 125.688C360.75 124.375 362.281 123.344 364.281 122.594C365.656 123.156 366.656 123.812 367.281 124.562L367.469 125.594C367.719 126.219 368.094 126.531 368.594 126.531C369.281 126.719 369.844 126.906 370.281 127.094C370.781 127.219 371.312 127.344 371.875 127.469C372.312 127.969 372.719 128.562 373.094 129.25C373.594 130 374.062 130.75 374.5 131.5C375 132.188 375.375 132.906 375.625 133.656C375.938 134.344 376.094 135.062 376.094 135.812C376.156 136.562 376.031 137.344 375.719 138.156L375.812 139.094C376.125 139.656 376.188 140.438 376 141.438C375.938 141.875 375.906 142.344 375.906 142.844C375.906 143.281 375.969 143.781 376.094 144.344C377.219 145.219 378.219 145.656 379.094 145.656C380.094 145.656 381 145.438 381.812 145C382.688 144.5 383.5 144 384.25 143.5C384.75 143.125 385.25 142.812 385.75 142.562C386.25 142.25 386.75 142.062 387.25 142C388.375 140.938 389.375 140 390.25 139.188C391.188 138.375 392.156 137.562 393.156 136.75C395.031 135.25 396.844 133.625 398.594 131.875C400.344 130.125 401.75 127.938 402.812 125.312C403.438 124.938 404.094 124.75 404.781 124.75C405.469 124.75 406.188 124.906 406.938 125.219C407.688 125.531 408.406 125.844 409.094 126.156C409.281 126.281 409.438 126.375 409.562 126.438C409.75 126.5 409.906 126.562 410.031 126.625C410.031 127.25 410.281 127.781 410.781 128.219C411.031 128.406 411.188 128.531 411.25 128.594C411.312 128.656 411.406 128.719 411.531 128.781C412.469 129.281 413.062 129.781 413.312 130.281C413.75 131.719 414.531 132.812 415.656 133.562C415.531 134.188 415.531 134.781 415.656 135.344C415.844 135.844 416.062 136.375 416.312 136.938C416.375 137.125 416.438 137.312 416.5 137.5C416.562 137.688 416.656 137.906 416.781 138.156L415 137.969L415.281 139.75C415.406 140.625 415.312 141.594 415 142.656C414.75 143.719 414.438 144.562 414.062 145.188C414.125 146.812 414.156 148.094 414.156 149.031C414.219 149.906 414.188 150.75 414.062 151.562C413.938 152.312 413.75 153.031 413.5 153.719C413.312 154.406 413.031 155.156 412.656 155.969C412.906 159.969 412.438 163.625 411.25 166.938C410.125 170.188 408.938 173.25 407.688 176.125C407.562 176.438 407.406 176.75 407.219 177.062C407.094 177.375 406.969 177.688 406.844 178C406.281 178.188 405.781 178.406 405.344 178.656C404.906 178.844 404.438 179.062 403.938 179.312ZM482.125 179.312C481.5 179.625 480.906 179.906 480.344 180.156C479.844 180.406 479.25 180.531 478.562 180.531C476.125 178.719 474.844 175.562 474.719 171.062C474.656 166.562 475.625 160.844 477.625 153.906C477.938 153.719 478.094 153.344 478.094 152.781L477.25 151.844C477 151.844 476.75 151.875 476.5 151.938C476.312 152 476.156 152.219 476.031 152.594C474.406 153.781 472.625 155.031 470.688 156.344C468.75 157.594 466.719 158.781 464.594 159.906C462.531 160.969 460.406 161.844 458.219 162.531C456.094 163.219 454 163.562 451.938 163.562C446.688 163.562 442.75 160.906 440.125 155.594L439.375 154.188L438.625 155.406C438.438 155.656 438.156 156.188 437.781 157C437.406 157.75 437.031 158.625 436.656 159.625C436.281 160.625 435.938 161.656 435.625 162.719C435.375 163.719 435.281 164.594 435.344 165.344C434.781 165.906 434.188 166.562 433.562 167.312C432.938 168.062 432.469 168.906 432.156 169.844C432.031 170.344 432.094 170.812 432.344 171.25C432.219 171.812 431.938 172.25 431.5 172.562C431.25 172.875 430.969 173.188 430.656 173.5C430.406 173.75 430.188 174.031 430 174.344C429.875 174.656 429.781 174.969 429.719 175.281C429.719 175.594 429.688 175.906 429.625 176.219C429.625 176.656 429.562 177.062 429.438 177.438C428.375 179.625 427.531 181.031 426.906 181.656C426.281 182.344 425.438 182.688 424.375 182.688C423.875 182.688 423.062 182.594 421.938 182.406C421.125 181.531 420.375 180.344 419.688 178.844C419.062 177.281 418.562 175.625 418.188 173.875C417.875 172.125 417.719 170.375 417.719 168.625C417.781 166.812 418.094 165.25 418.656 163.938C418.656 163.875 418.906 163.25 419.406 162.062C419.906 160.875 420.531 159.344 421.281 157.469C422.094 155.594 423 153.531 424 151.281C425 148.969 426 146.75 427 144.625C428 142.438 428.938 140.438 429.812 138.625C430.75 136.812 431.531 135.438 432.156 134.5C432.656 133.75 433.094 133.062 433.469 132.438C433.906 131.75 434.312 131.094 434.688 130.469C435.812 128.531 436.875 126.938 437.875 125.688C438.938 124.375 440.469 123.344 442.469 122.594C443.844 123.156 444.844 123.812 445.469 124.562L445.656 125.594C445.906 126.219 446.281 126.531 446.781 126.531C447.469 126.719 448.031 126.906 448.469 127.094C448.969 127.219 449.5 127.344 450.062 127.469C450.5 127.969 450.906 128.562 451.281 129.25C451.781 130 452.25 130.75 452.688 131.5C453.188 132.188 453.562 132.906 453.812 133.656C454.125 134.344 454.281 135.062 454.281 135.812C454.344 136.562 454.219 137.344 453.906 138.156L454 139.094C454.312 139.656 454.375 140.438 454.188 141.438C454.125 141.875 454.094 142.344 454.094 142.844C454.094 143.281 454.156 143.781 454.281 144.344C455.406 145.219 456.406 145.656 457.281 145.656C458.281 145.656 459.188 145.438 460 145C460.875 144.5 461.688 144 462.438 143.5C462.938 143.125 463.438 142.812 463.938 142.562C464.438 142.25 464.938 142.062 465.438 142C466.562 140.938 467.562 140 468.438 139.188C469.375 138.375 470.344 137.562 471.344 136.75C473.219 135.25 475.031 133.625 476.781 131.875C478.531 130.125 479.938 127.938 481 125.312C481.625 124.938 482.281 124.75 482.969 124.75C483.656 124.75 484.375 124.906 485.125 125.219C485.875 125.531 486.594 125.844 487.281 126.156C487.469 126.281 487.625 126.375 487.75 126.438C487.938 126.5 488.094 126.562 488.219 126.625C488.219 127.25 488.469 127.781 488.969 128.219C489.219 128.406 489.375 128.531 489.438 128.594C489.5 128.656 489.594 128.719 489.719 128.781C490.656 129.281 491.25 129.781 491.5 130.281C491.938 131.719 492.719 132.812 493.844 133.562C493.719 134.188 493.719 134.781 493.844 135.344C494.031 135.844 494.25 136.375 494.5 136.938C494.562 137.125 494.625 137.312 494.688 137.5C494.75 137.688 494.844 137.906 494.969 138.156L493.188 137.969L493.469 139.75C493.594 140.625 493.5 141.594 493.188 142.656C492.938 143.719 492.625 144.562 492.25 145.188C492.312 146.812 492.344 148.094 492.344 149.031C492.406 149.906 492.375 150.75 492.25 151.562C492.125 152.312 491.938 153.031 491.688 153.719C491.5 154.406 491.219 155.156 490.844 155.969C491.094 159.969 490.625 163.625 489.438 166.938C488.312 170.188 487.125 173.25 485.875 176.125C485.75 176.438 485.594 176.75 485.406 177.062C485.281 177.375 485.156 177.688 485.031 178C484.469 178.188 483.969 178.406 483.531 178.656C483.094 178.844 482.625 179.062 482.125 179.312ZM550.094 152.875C550.031 153.625 550.094 154.344 550.281 155.031C550.469 155.719 550.688 156.406 550.938 157.094C551.25 157.719 551.531 158.375 551.781 159.062C552.031 159.75 552.219 160.438 552.344 161.125C552.469 162 552.469 162.969 552.344 164.031C552.219 165.031 552 166.031 551.688 167.031C551.375 167.969 550.969 168.844 550.469 169.656C549.969 170.406 549.375 170.969 548.688 171.344C547.812 172.469 546.75 173.344 545.5 173.969C544.25 174.594 543.094 175.344 542.031 176.219C541.344 176.656 540.562 176.969 539.688 177.156C538.875 177.344 538.031 177.531 537.156 177.719C536.469 178.094 535.656 178.5 534.719 178.938C533.781 179.312 532.812 179.688 531.812 180.062C530.812 180.375 529.812 180.625 528.812 180.812C527.812 180.938 526.938 180.969 526.188 180.906C524.312 181.594 522.469 182.031 520.656 182.219C518.906 182.469 516.844 182.344 514.469 181.844C512.219 182.156 510.125 182.062 508.188 181.562C506.312 181.062 504.625 180.281 503.125 179.219C501.688 178.094 500.406 176.781 499.281 175.281C498.219 173.719 497.344 172.094 496.656 170.406C496.156 166.844 496.281 163.625 497.031 160.75C497.781 157.812 498.844 155.125 500.219 152.688C501.656 150.188 503.281 147.906 505.094 145.844C506.906 143.719 508.656 141.656 510.344 139.656C510.719 139.781 511 139.781 511.188 139.656C511.438 139.469 511.656 139.25 511.844 139C512.031 138.688 512.219 138.406 512.406 138.156C512.656 137.906 512.938 137.75 513.25 137.688C513.688 136.75 514.312 136.062 515.125 135.625C516 135.125 516.688 134.438 517.188 133.562C517.75 133.438 518.219 133.25 518.594 133C518.969 132.75 519.312 132.469 519.625 132.156C520 131.844 520.375 131.562 520.75 131.312C521.125 131 521.562 130.781 522.062 130.656V129.625C523.188 129.125 524 128.562 524.5 127.938C525.062 127.25 525.719 126.438 526.469 125.5C527.031 125.438 527.469 125.406 527.781 125.406C528.156 125.406 528.688 125.344 529.375 125.219C529.875 124.344 530.312 123.688 530.688 123.25C531.125 122.812 531.75 122.344 532.562 121.844C533.312 122.219 534.125 122.469 535 122.594C535.938 122.719 536.75 123.125 537.438 123.812C537.5 124.438 537.688 124.938 538 125.312C538.312 125.625 538.656 125.938 539.031 126.25C539.406 126.5 539.75 126.781 540.062 127.094C540.438 127.406 540.688 127.844 540.812 128.406C541.062 128.469 541.219 128.438 541.281 128.312C541.406 128.188 541.594 128.156 541.844 128.219C542.031 129.094 542.25 129.688 542.5 130C542.75 130.25 543 130.781 543.25 131.594C542.938 132.219 542.688 132.875 542.5 133.562C542.375 134.188 542 134.656 541.375 134.969C541.312 135.406 541.438 135.656 541.75 135.719C542.062 135.719 542.25 135.875 542.312 136.188C542.375 136.75 542.281 137.156 542.031 137.406C543.531 139.844 544.875 142.438 546.062 145.188C547.25 147.875 548.594 150.438 550.094 152.875ZM538.375 161.781C538.625 161.094 538.938 160.531 539.312 160.094C539.75 159.656 540 159 540.062 158.125C539.75 157.625 539.562 157.25 539.5 157C539.438 156.688 539.406 156.219 539.406 155.594C538.031 153.656 536.844 151.594 535.844 149.406C534.844 147.156 533.719 145.062 532.469 143.125C532.344 143.375 532.125 143.625 531.812 143.875C531.5 144.125 531.156 144.062 530.781 143.688C530.656 144.188 530.438 144.562 530.125 144.812C529.812 145 529.469 145.094 529.094 145.094C528.719 145.031 528.312 144.938 527.875 144.812C527.5 144.625 527.156 144.406 526.844 144.156C525.031 145.594 523.219 147 521.406 148.375C519.594 149.75 517.969 151.344 516.531 153.156C516.281 153.281 516.125 153.344 516.062 153.344C516 153.281 515.812 153.312 515.5 153.438C515 154.625 514.375 155.719 513.625 156.719C512.938 157.656 512.25 158.625 511.562 159.625C510.875 160.625 510.281 161.688 509.781 162.812C509.281 163.938 509 165.25 508.938 166.75C510 167.625 511.25 168.156 512.688 168.344C514.125 168.531 515.594 168.562 517.094 168.438C518.656 168.312 520.156 168.125 521.594 167.875C523.094 167.562 524.469 167.406 525.719 167.406C528.344 166.781 530.594 165.969 532.469 164.969C534.344 163.906 536.312 162.844 538.375 161.781ZM575.031 163.938C574.469 164.062 574.062 164.406 573.812 164.969C573.562 165.469 573.312 166 573.062 166.562C572.875 167.125 572.656 167.656 572.406 168.156C572.219 168.594 571.906 168.812 571.469 168.812C571.406 169.312 571.219 169.75 570.906 170.125C570.656 170.5 570.406 170.906 570.156 171.344C569.906 171.719 569.719 172.156 569.594 172.656C569.469 173.094 569.531 173.625 569.781 174.25C569.281 174.625 568.969 175.156 568.844 175.844C568.719 176.531 568.562 177.188 568.375 177.812C568.25 178.438 568 178.969 567.625 179.406C567.25 179.844 566.562 180.031 565.562 179.969C565.375 180.219 565.344 180.375 565.469 180.438C565.594 180.5 565.688 180.719 565.75 181.094C565.062 180.969 564.531 181 564.156 181.188C563.844 181.438 563.438 181.594 562.938 181.656C561.75 181.281 560.75 180.625 559.938 179.688C559.188 178.75 558.5 177.719 557.875 176.594C557.312 175.406 556.781 174.219 556.281 173.031C555.844 171.844 555.406 170.812 554.969 169.938C555.156 169.25 555.188 168.594 555.062 167.969C554.938 167.281 554.719 166.719 554.406 166.281C557.469 159.781 560.812 152.844 564.438 145.469C568.062 138.094 571.5 130.812 574.75 123.625C576.188 124.188 577.594 124.844 578.969 125.594C580.406 126.281 581.688 127.094 582.812 128.031C584 128.969 585 130.062 585.812 131.312C586.625 132.5 587.156 133.844 587.406 135.344C587.281 135.719 587.125 135.875 586.938 135.812C586.812 135.688 586.688 135.719 586.562 135.906C586.812 136.219 586.938 136.438 586.938 136.562C587 136.688 587 136.812 586.938 136.938C586.938 137.062 586.938 137.25 586.938 137.5C586.938 137.688 587.031 137.969 587.219 138.344C586.969 138.281 586.781 138.312 586.656 138.438C586.594 138.562 586.406 138.562 586.094 138.438C586.344 139.125 586.406 139.688 586.281 140.125C586.219 140.562 586.094 140.969 585.906 141.344C585.719 141.656 585.562 142.031 585.438 142.469C585.312 142.844 585.344 143.344 585.531 143.969C585.344 143.969 585.188 144.031 585.062 144.156C585 144.219 584.938 144.312 584.875 144.438C584.812 144.5 584.719 144.594 584.594 144.719C584.531 144.781 584.406 144.781 584.219 144.719C584.406 146.094 584.469 147.469 584.406 148.844C584.344 150.219 584.281 151.625 584.219 153.062C584.219 154.438 584.25 155.906 584.312 157.469C584.375 158.969 584.594 160.531 584.969 162.156C587.219 160.844 589 159.156 590.312 157.094C591.688 155.031 592.781 152.719 593.594 150.156C594.469 147.594 595.125 144.844 595.562 141.906C596 138.969 596.469 135.969 596.969 132.906C597.531 132.344 597.969 131.656 598.281 130.844C598.594 130.031 598.875 129.188 599.125 128.312C599.375 127.375 599.625 126.469 599.875 125.594C600.125 124.656 600.438 123.812 600.812 123.062C601.75 123.188 602.531 123.5 603.156 124C603.844 124.438 604.469 124.938 605.031 125.5C605.594 126 606.188 126.5 606.812 127C607.438 127.438 608.219 127.719 609.156 127.844C609.906 128.906 610.594 129.938 611.219 130.938C611.844 131.938 612.25 133 612.438 134.125C612.125 134.625 611.875 135.188 611.688 135.812C611.562 136.438 611.406 137.062 611.219 137.688C611.031 138.312 610.781 138.906 610.469 139.469C610.156 139.969 609.719 140.406 609.156 140.781C608.969 142.406 608.719 143.906 608.406 145.281C608.156 146.594 607.875 147.906 607.562 149.219C607.312 150.531 607.094 151.906 606.906 153.344C606.719 154.719 606.656 156.25 606.719 157.938C606.219 159.375 605.688 160.906 605.125 162.531C604.562 164.156 604.125 165.625 603.812 166.938C602.812 167.75 602.031 168.719 601.469 169.844C600.906 170.969 600.312 172.094 599.688 173.219C599.438 173.469 599.281 173.531 599.219 173.406C599.156 173.281 598.938 173.188 598.562 173.125C598.625 173.375 598.625 173.562 598.562 173.688C598.5 173.812 598.406 173.938 598.281 174.062C598.219 174.125 598.156 174.25 598.094 174.438C598.094 174.625 598.156 174.875 598.281 175.188C597.406 175.562 596.625 176.094 595.938 176.781C595.25 177.469 594.5 178.094 593.688 178.656C592.938 179.219 592 179.594 590.875 179.781C589.812 179.969 588.406 179.75 586.656 179.125C584.094 177.25 581.812 175.094 579.812 172.656C577.875 170.219 576.281 167.312 575.031 163.938ZM611.5 138.812C611.938 137.5 612.625 136.375 613.562 135.438C614.562 134.5 615.625 133.719 616.75 133.094C617.938 132.406 619.156 131.844 620.406 131.406C621.656 130.969 622.844 130.594 623.969 130.281C626.469 129.219 629.125 128.219 631.938 127.281C634.812 126.281 637.719 125.406 640.656 124.656C643.656 123.906 646.719 123.438 649.844 123.25C652.969 123 656.25 123.375 659.688 124.375C659.875 125 660.156 125.594 660.531 126.156C660.906 126.719 661.281 127.281 661.656 127.844C662.094 128.406 662.469 128.969 662.781 129.531C663.094 130.031 663.281 130.562 663.344 131.125C663.969 131.688 664.469 132.312 664.844 133C665.219 133.625 665.281 134.469 665.031 135.531C664.406 136.031 663.781 136.5 663.156 136.938C662.594 137.312 661.969 137.656 661.281 137.969C658.969 137.406 656.625 137.219 654.25 137.406C651.875 137.594 649.75 137.75 647.875 137.875C647.312 137.312 646.625 137.031 645.812 137.031C645.062 137.031 644.25 137.156 643.375 137.406C642.562 137.656 641.719 137.906 640.844 138.156C640.031 138.406 639.25 138.469 638.5 138.344C637.875 138.844 637.094 139.188 636.156 139.375C635.281 139.5 634.312 139.625 633.25 139.75C633.188 140.062 633.25 140.281 633.438 140.406C633.625 140.469 633.656 140.656 633.531 140.969C633.906 141.406 634.375 141.719 634.938 141.906C635.562 142.094 636.188 142.281 636.812 142.469C637.5 142.656 638.094 142.906 638.594 143.219C639.094 143.469 639.438 143.906 639.625 144.531C640.562 144.531 641.375 144.75 642.062 145.188C642.75 145.625 643.312 146.156 643.75 146.781C644.188 147.406 644.5 148.094 644.688 148.844C644.938 149.531 645.062 150.156 645.062 150.719C645.25 151.219 645.469 151.438 645.719 151.375C645.969 151.312 646.25 151.438 646.562 151.75C646.75 152.562 647.219 153.406 647.969 154.281C648.719 155.094 649.312 156 649.75 157C649.875 158.562 649.969 159.969 650.031 161.219C650.094 162.406 649.875 163.625 649.375 164.875C648.438 167.188 647.125 169.25 645.438 171.062C643.812 172.875 641.938 174.5 639.812 175.938C637.75 177.312 635.531 178.5 633.156 179.5C630.781 180.5 628.469 181.344 626.219 182.031C625.969 181.969 625.719 181.969 625.469 182.031C625.219 182.094 625.156 181.938 625.281 181.562C624.781 182 624.219 182.281 623.594 182.406C623.031 182.531 622.406 182.562 621.719 182.5C621.031 182.5 620.312 182.469 619.562 182.406C618.875 182.344 618.219 182.375 617.594 182.5C617.156 182.062 616.75 181.625 616.375 181.188C616.062 180.812 615.812 180.312 615.625 179.688C615.312 179.688 615.156 179.531 615.156 179.219C615.219 178.906 615.125 178.75 614.875 178.75C615.25 178.125 615.406 177.781 615.344 177.719C615.344 177.594 615.25 177.5 615.062 177.438C614.938 177.375 614.812 177.312 614.688 177.25C614.562 177.125 614.531 176.969 614.594 176.781C614.844 176.281 614.938 175.719 614.875 175.094C614.812 174.406 614.75 173.719 614.688 173.031C614.625 172.344 614.656 171.688 614.781 171.062C614.969 170.438 615.438 169.938 616.188 169.562C618.312 169.812 620.312 169.75 622.188 169.375C624.125 168.938 625.938 168.344 627.625 167.594C629.312 166.844 630.906 166.031 632.406 165.156C633.969 164.281 635.5 163.5 637 162.812C637.188 162.25 637.438 161.781 637.75 161.406C638.125 161.031 638.5 160.688 638.875 160.375C639.25 160.062 639.594 159.719 639.906 159.344C640.219 158.969 640.438 158.5 640.562 157.938C640.625 157.5 640.5 157.25 640.188 157.188C639.938 157.062 639.812 156.812 639.812 156.438L638.781 156.156C637.594 155.469 636.25 154.906 634.75 154.469C633.25 153.969 631.969 153.438 630.906 152.875C630.219 153.25 629.562 153.344 628.938 153.156C628.375 152.969 627.625 152.781 626.688 152.594C624.562 152.469 622.5 152.25 620.5 151.938C618.562 151.625 616.688 151.062 614.875 150.25C614.75 149.938 614.594 149.656 614.406 149.406C614.219 149.156 613.875 149.094 613.375 149.219C613 148.719 612.625 148.25 612.25 147.812C611.875 147.312 611.531 146.781 611.219 146.219C611.344 145.469 611.438 144.844 611.5 144.344C611.562 143.781 611.375 143.25 610.938 142.75C611.188 141.938 611.375 141.281 611.5 140.781C611.625 140.281 611.625 139.625 611.5 138.812Z" fill="#FDDC35"/>
</svg>
